#N canvas 340 29 760 566 10;
#X obj 35 79 stripnote;
#X obj 35 139 select 38 39 40 41 42 43, f 116;
#X obj 35 208 line~;
#X obj 35 250 *~ 1;
#X obj 150 206 line~;
#X obj 150 248 *~ 1;
#X obj 267 206 line~;
#X obj 267 248 *~ 1;
#X obj 381 206 line~;
#X obj 381 248 *~ 1;
#X obj 497 206 line~;
#X obj 497 248 *~ 1;
#X obj 612 206 line~;
#X obj 612 248 *~ 1;
#X msg 35 184 0 \, 88200 2000;
#X msg 381 184 0 \, 88200 2000;
#X msg 497 184 0 \, 88200 2000;
#X msg 612 184 0 \, 88200 2000;
#X obj 612 227 tabread~ samp5;
#X obj 497 227 tabread~ samp4;
#X obj 381 227 tabread~ samp3;
#X obj 267 227 tabread~ samp2;
#X obj 150 227 tabread~ samp1;
#X obj 35 227 tabread~ samp0;
#X obj 35 401 soundfiler;
#N canvas 0 23 773 377 samples 0;
#N canvas 0 23 450 278 (subpatch) 0;
#X array samp0 88200 float 2;
#X coords 0 1 88200 -1 200 140 1 0 0;
#X restore 70 30 graph;
#N canvas 0 23 450 278 (subpatch) 0;
#X array samp1 88200 float 2;
#X coords 0 1 88200 -1 200 140 1 0 0;
#X restore 280 30 graph;
#N canvas 0 23 450 278 (subpatch) 0;
#X array samp2 88200 float 2;
#X coords 0 1 88200 -1 200 140 1 0 0;
#X restore 490 30 graph;
#N canvas 0 23 450 278 (subpatch) 0;
#X array samp3 88200 float 2;
#X coords 0 1 88200 -1 200 140 1 0 0;
#X restore 70 190 graph;
#N canvas 0 23 450 278 (subpatch) 0;
#X array samp4 88200 float 2;
#X coords 0 1 88200 -1 200 140 1 0 0;
#X restore 280 190 graph;
#N canvas 0 23 450 278 (subpatch) 0;
#X array samp5 88200 float 2;
#X coords 0 1 88200 -1 200 140 1 0 0;
#X restore 490 190 graph;
#X restore 263 52 pd samples;
#X obj 185 401 soundfiler;
#X obj 335 401 soundfiler;
#X obj 35 481 soundfiler;
#X obj 185 481 soundfiler;
#X obj 335 481 soundfiler;
#X msg 35 380 read sample0.wav samp0;
#X msg 185 380 read sample1.wav samp1;
#X msg 335 380 read sample2.wav samp2;
#X msg 35 460 read sample3.wav samp3;
#X msg 185 460 read sample4.wav samp4;
#X msg 335 460 read sample5.wav samp5;
#X msg 150 184 0 \, 88200 2000;
#X obj 35 359 loadbang;
#X obj 185 359 loadbang;
#X obj 335 359 loadbang;
#X obj 35 439 loadbang;
#X obj 185 439 loadbang;
#X obj 335 439 loadbang;
#X obj 605 432 outlet~;
#X obj 35 273 throw~ output;
#X obj 150 273 throw~ output;
#X obj 267 273 throw~ output;
#X obj 381 273 throw~ output;
#X obj 497 273 throw~ output;
#X obj 612 273 throw~ output;
#X obj 605 411 catch~ output;
#X obj 35 29 inlet;
#X msg 267 184 0 \, 88200 1700;
#X connect 0 0 1 0;
#X connect 1 0 14 0;
#X connect 1 1 37 0;
#X connect 1 2 53 0;
#X connect 1 3 15 0;
#X connect 1 4 16 0;
#X connect 1 5 17 0;
#X connect 2 0 23 0;
#X connect 3 0 45 0;
#X connect 4 0 22 0;
#X connect 5 0 46 0;
#X connect 6 0 21 0;
#X connect 7 0 47 0;
#X connect 8 0 20 0;
#X connect 9 0 48 0;
#X connect 10 0 19 0;
#X connect 11 0 49 0;
#X connect 12 0 18 0;
#X connect 13 0 50 0;
#X connect 14 0 2 0;
#X connect 15 0 8 0;
#X connect 16 0 10 0;
#X connect 17 0 12 0;
#X connect 18 0 13 0;
#X connect 19 0 11 0;
#X connect 20 0 9 0;
#X connect 21 0 7 0;
#X connect 22 0 5 0;
#X connect 23 0 3 0;
#X connect 31 0 24 0;
#X connect 32 0 26 0;
#X connect 33 0 27 0;
#X connect 34 0 28 0;
#X connect 35 0 29 0;
#X connect 36 0 30 0;
#X connect 37 0 4 0;
#X connect 38 0 31 0;
#X connect 39 0 32 0;
#X connect 40 0 33 0;
#X connect 41 0 34 0;
#X connect 42 0 35 0;
#X connect 43 0 36 0;
#X connect 51 0 44 0;
#X connect 52 0 0 0;
#X connect 53 0 6 0;
