#N canvas 335 24 885 742 10;
#X msg 93 122 bang;
#X obj 154 422 line~;
#X obj 44 169 tabwrite~ loop0;
#N canvas 532 177 748 283 loops 0;
#N canvas 0 22 450 278 (subpatch) 0;
#X array loop0 441000 float 2;
#X coords 0 1 441000 -1 700 43 1 0 0;
#X restore 16 24 graph;
#N canvas 0 22 450 278 (subpatch) 0;
#X array loop1 441000 float 2;
#X coords 0 1 441000 -1 700 43 1 0 0;
#X restore 16 83 graph;
#N canvas 0 22 450 278 (subpatch) 0;
#X array loop2 44100 float 2;
#X coords 0 1 44100 -1 700 43 1 0 0;
#X restore 16 143 graph;
#N canvas 0 22 450 278 (subpatch) 0;
#X array loop3 44100 float 2;
#X coords 0 1 44100 -1 700 43 1 0 0;
#X restore 16 203 graph;
#X restore 242 37 pd loops;
#X obj 154 443 tabread~ loop0;
#X obj 164 177 timer 1 msec;
#X msg 233 136 bang;
#X msg 134 122 stop;
#X obj 170 377 pack 0 0;
#X obj 144 469 dac~;
#X obj 181 290 * 44.1;
#X msg 132 378 0 0;
#X obj 105 290 metro;
#X obj 145 342 float;
#X msg 105 261 1;
#X obj 105 311 t b b;
#X msg 72 262 0;
#X obj 164 216 t b f f f;
#N canvas 0 22 450 278 (subpatch) 0;
#X array scope 500 float 2;
#X coords 0 1 500 -1 200 140 1;
#X restore 490 429 graph;
#X msg 695 269 bang;
#X obj 695 290 metro 500;
#X obj 487 352 tabwrite~ scope;
#X connect 0 0 2 0;
#X connect 0 0 5 0;
#X connect 1 0 4 0;
#X connect 4 0 9 0;
#X connect 4 0 9 1;
#X connect 5 0 17 0;
#X connect 6 0 5 1;
#X connect 7 0 2 0;
#X connect 7 0 6 0;
#X connect 8 0 1 0;
#X connect 10 0 13 1;
#X connect 11 0 1 0;
#X connect 12 0 15 0;
#X connect 13 0 8 0;
#X connect 14 0 12 0;
#X connect 15 0 13 0;
#X connect 15 1 11 0;
#X connect 16 0 12 0;
#X connect 17 0 14 0;
#X connect 17 1 12 1;
#X connect 17 2 10 0;
#X connect 17 3 8 1;
#X connect 19 0 20 0;
#X connect 20 0 21 0;
