#N canvas 489 23 450 573 10;
#X obj 144 165 timer;
#X obj 66 69 inlet;
#X obj 66 90 unpack 0 0;
#X obj 123 111 select 0;
#X obj 168 131 bang;
#X obj 144 207 sel 1;
#X obj 144 228 outlet;
#X obj 144 186 >= \$1;
#X text 28 288 Takes in midi note messages \, then sends out a bang
if the note was held for more than some \$1 number of seconds.;
#X connect 0 0 7 0;
#X connect 1 0 2 0;
#X connect 2 1 3 0;
#X connect 3 0 0 1;
#X connect 3 1 4 0;
#X connect 4 0 0 0;
#X connect 5 0 6 0;
#X connect 7 0 5 0;
