#N canvas 131 23 331 529 10;
#X obj 104 110 drums~;
#N canvas 0 22 450 278 (subpatch) 0;
#X array scope 500 float 2;
#X coords 0 1 500 -1 200 140 1;
#X restore 62 293 graph;
#X msg 188 139 bang;
#X obj 131 195 tabwrite~ scope;
#X obj 104 138 repeat;
#X obj 93 195 dac~;
#X obj 114 163 +~;
#X obj 71 110 *~;
#X obj 50 65 adc~;
#X msg 86 65 0;
#X msg 118 65 1;
#X obj 188 160 metro 50;
#N canvas 0 23 703 340 control 0;
#X obj 37 37 notein;
#X obj 37 58 pack 0 0;
#X obj 125 137 pack 36 0;
#X obj 125 116 t b f;
#X obj 125 79 route 36;
#X obj 225 158 outlet;
#X obj 125 158 held 1000;
#X connect 0 0 1 0;
#X connect 0 1 1 1;
#X connect 1 0 4 0;
#X connect 2 0 6 0;
#X connect 2 0 5 0;
#X connect 3 0 2 0;
#X connect 3 1 2 1;
#X connect 4 0 3 0;
#X connect 4 1 5 0;
#X restore 165 31 pd control;
#X connect 0 0 4 0;
#X connect 0 1 4 1;
#X connect 0 2 4 2;
#X connect 2 0 11 0;
#X connect 4 0 6 0;
#X connect 4 1 6 1;
#X connect 6 0 5 0;
#X connect 6 0 5 1;
#X connect 6 0 3 0;
#X connect 7 0 4 0;
#X connect 8 0 7 0;
#X connect 8 1 7 0;
#X connect 9 0 7 1;
#X connect 10 0 7 1;
#X connect 11 0 3 0;
#X connect 12 0 0 0;
