#N canvas 577 23 310 661 10;
#X obj 161 49 drums~;
#N canvas 0 22 450 278 (subpatch) 0;
#X array scope 500 float 2;
#X coords 0 1 500 -1 200 140 1;
#X restore 34 293 graph;
#X msg 169 155 bang;
#X obj 169 207 tabwrite~ scope;
#X obj 33 153 repeat, f 17;
#X obj 33 221 dac~;
#X obj 33 192 +~;
#X obj 133 534 *~;
#X obj 97 495 adc~;
#X msg 133 495 0;
#X msg 165 495 1;
#X obj 169 180 metro 50;
#N canvas 301 52 816 653 control 0;
#X obj 110 29 notein;
#X obj 110 50 pack 0 0;
#X obj 110 126 pack 36 0;
#X obj 110 92 t b f;
#X obj 110 206 held 1000;
#X obj 7 474 r mostNotes;
#X obj 626 122 s mostNotes;
#X obj 7 495 outlet;
#X msg 110 227 0;
#X obj 110 71 route 36;
#X obj 110 431 float;
#X obj 127 333 +;
#X msg 127 312 1;
#X obj 174 347 float;
#X obj 110 248 t f f;
#X obj 110 452 print x1;
#X obj 127 375 mod 2;
#X obj 127 396 + 1;
#X obj 127 354 + 1;
#X obj 189 206 stripnote;
#X obj 189 248 bang;
#X obj 110 147 t l l;
#X text 416 46 States: 0 - fresh 1 - loop 2 - dub;
#X text 301 527 Outputs 0 \, 1 \, or 2 depending on how midi note 36
is pressed. Passes the rest of the midi messages through unchanged
;
#X obj 161 502 outlet;
#X obj 342 469 t b f;
#X obj 378 419 t b f;
#X obj 414 369 t b f;
#X obj 451 318 t b f;
#X obj 487 268 t b f;
#X obj 524 218 t b f;
#X obj 560 168 t b f;
#X obj 560 504 outlet;
#X obj 487 289 pack 42 0;
#X obj 524 239 pack 43 0;
#X obj 560 189 pack 44 0;
#X obj 342 490 pack 38 0;
#X obj 378 440 pack 39 0;
#X obj 342 108 route 38 39 40 41 42 43 44, f 43;
#X obj 451 339 pack 41 0;
#X obj 414 390 pack 40 0;
#X obj 297 85 route 37;
#X connect 0 0 1 0;
#X connect 0 1 1 1;
#X connect 1 0 9 0;
#X connect 2 0 21 0;
#X connect 3 0 2 0;
#X connect 3 1 2 1;
#X connect 4 0 8 0;
#X connect 5 0 7 0;
#X connect 8 0 14 0;
#X connect 9 0 3 0;
#X connect 9 1 41 0;
#X connect 10 0 15 0;
#X connect 10 0 24 0;
#X connect 11 0 13 0;
#X connect 11 0 18 0;
#X connect 12 0 11 0;
#X connect 13 0 11 1;
#X connect 14 0 10 0;
#X connect 14 1 13 0;
#X connect 16 0 17 0;
#X connect 17 0 10 0;
#X connect 18 0 16 0;
#X connect 19 0 20 0;
#X connect 20 0 12 0;
#X connect 21 0 4 0;
#X connect 21 1 19 0;
#X connect 25 0 36 0;
#X connect 25 1 36 1;
#X connect 26 0 37 0;
#X connect 26 1 37 1;
#X connect 27 0 40 0;
#X connect 27 1 40 1;
#X connect 28 0 39 0;
#X connect 28 1 39 1;
#X connect 29 0 33 0;
#X connect 29 1 33 1;
#X connect 30 0 34 0;
#X connect 30 1 34 1;
#X connect 31 0 35 0;
#X connect 31 1 35 1;
#X connect 33 0 32 0;
#X connect 34 0 32 0;
#X connect 35 0 32 0;
#X connect 36 0 32 0;
#X connect 37 0 32 0;
#X connect 38 0 25 0;
#X connect 38 1 26 0;
#X connect 38 2 27 0;
#X connect 38 3 28 0;
#X connect 38 4 29 0;
#X connect 38 5 30 0;
#X connect 38 6 31 0;
#X connect 38 7 6 0;
#X connect 39 0 32 0;
#X connect 40 0 32 0;
#X connect 41 1 38 0;
#X restore 104 27 pd control;
#X obj 27 68 simplefm;
#X obj 33 127 catch~ intoLoop;
#X obj 26 89 throw~ intoLoop;
#X obj 161 70 throw~ intoLoop;
#X obj 133 555 throw~ intoLoop;
#X text 77 616 Jon Wardle 12/04/2018;
#X connect 0 0 16 0;
#X connect 2 0 11 0;
#X connect 4 0 6 0;
#X connect 4 1 6 1;
#X connect 6 0 3 0;
#X connect 6 0 5 0;
#X connect 6 0 5 1;
#X connect 7 0 17 0;
#X connect 8 0 7 0;
#X connect 8 1 7 0;
#X connect 9 0 7 1;
#X connect 10 0 7 1;
#X connect 11 0 3 0;
#X connect 12 0 13 0;
#X connect 12 1 4 1;
#X connect 12 2 0 0;
#X connect 13 0 15 0;
#X connect 14 0 4 0;
