#N canvas 243 59 870 583 10;
#X obj 339 66 mtof;
#X obj 324 309 *~;
#X obj 339 228 phasor~;
#X obj 324 273 cos~;
#X obj 324 250 +~;
#X obj 278 165 phasor~;
#X obj 196 61 ctlin 2 1;
#X obj 278 186 cos~;
#X obj 263 206 *~;
#X obj 339 207 line~;
#X obj 278 121 pack 0 20;
#X obj 278 143 line~;
#X obj 196 103 pack 0 20;
#X obj 196 126 line~;
#X obj 407 288 line~;
#X obj 278 101 / 2;
#X obj 407 214 select 0;
#X msg 407 235 0;
#X msg 452 234 1;
#X obj 339 185 pack 0 10;
#X obj 407 265 pack 0 250;
#X obj 196 82 / 30;
#X obj 124 200 phasor~;
#X obj 124 221 cos~;
#X obj 109 241 *~;
#X obj 124 156 pack 0 20;
#X obj 124 178 line~;
#X obj 42 138 pack 0 20;
#X obj 42 161 line~;
#X obj 42 117 / 30;
#X obj 42 96 ctlin 1 1;
#X obj 124 136 / 4;
#X obj 478 266 pack 1 5;
#X obj 447 38 ctlin 16 1;
#X text 534 341 Want it to go when just pressing pad but not turn off
if holding drum pad;
#X obj 407 176 ||;
#X obj 407 133 float;
#X obj 446 133 float;
#X obj 418 101 t b b;
#X obj 407 67 t b f;
#X obj 447 64 t b f;
#X floatatom 378 330 5 0 0 0 - - -;
#X obj 378 350 pack 0 5;
#X obj 378 371 dbtorms;
#X obj 378 392 line~;
#X obj 315 396 *~;
#X obj 368 12 inlet;
#X obj 368 33 unpack;
#X obj 315 417 outlet~;
#X obj 619 268 loadbang;
#X msg 619 289 87;
#X connect 0 0 19 0;
#X connect 0 0 15 0;
#X connect 0 0 31 0;
#X connect 1 0 45 0;
#X connect 2 0 4 1;
#X connect 3 0 1 0;
#X connect 4 0 3 0;
#X connect 5 0 7 0;
#X connect 6 0 21 0;
#X connect 7 0 8 1;
#X connect 8 0 4 0;
#X connect 9 0 2 0;
#X connect 10 0 11 0;
#X connect 11 0 5 0;
#X connect 12 0 13 0;
#X connect 13 0 8 0;
#X connect 14 0 1 1;
#X connect 15 0 10 0;
#X connect 16 0 17 0;
#X connect 16 1 18 0;
#X connect 17 0 20 0;
#X connect 18 0 32 0;
#X connect 19 0 9 0;
#X connect 20 0 14 0;
#X connect 21 0 12 0;
#X connect 22 0 23 0;
#X connect 23 0 24 1;
#X connect 24 0 4 0;
#X connect 25 0 26 0;
#X connect 26 0 22 0;
#X connect 27 0 28 0;
#X connect 28 0 24 0;
#X connect 29 0 27 0;
#X connect 30 0 29 0;
#X connect 31 0 25 0;
#X connect 32 0 14 0;
#X connect 33 0 40 0;
#X connect 35 0 16 0;
#X connect 36 0 35 0;
#X connect 37 0 35 1;
#X connect 38 0 36 0;
#X connect 38 1 37 0;
#X connect 39 0 38 0;
#X connect 39 1 36 1;
#X connect 40 0 38 0;
#X connect 40 1 37 1;
#X connect 41 0 42 0;
#X connect 42 0 43 0;
#X connect 43 0 44 0;
#X connect 44 0 45 1;
#X connect 45 0 48 0;
#X connect 46 0 47 0;
#X connect 47 0 0 0;
#X connect 47 1 39 0;
#X connect 49 0 50 0;
#X connect 50 0 41 0;
